<mxfile host="Electron" agent="Mozilla/5.0 (Windows NT 10.0; Win64; x64) AppleWebKit/537.36 (KHTML, like Gecko) draw.io/24.7.17 Chrome/128.0.6613.36 Electron/32.0.1 Safari/537.36" version="24.7.17">
  <diagram name="Page-1" id="t0kIv5ZrGDC82LMV05ky">
    <mxGraphModel dx="1434" dy="844" grid="1" gridSize="10" guides="1" tooltips="1" connect="1" arrows="1" fold="1" page="1" pageScale="1" pageWidth="850" pageHeight="1100" math="0" shadow="0">
      <root>
        <mxCell id="0" />
        <mxCell id="1" parent="0" />
        <mxCell id="KS3wpAuk2NDt0mwM5IOt-5" style="edgeStyle=orthogonalEdgeStyle;rounded=0;orthogonalLoop=1;jettySize=auto;html=1;exitX=0.5;exitY=1;exitDx=0;exitDy=0;entryX=0.5;entryY=0;entryDx=0;entryDy=0;" edge="1" parent="1" source="KS3wpAuk2NDt0mwM5IOt-1" target="KS3wpAuk2NDt0mwM5IOt-2">
          <mxGeometry relative="1" as="geometry" />
        </mxCell>
        <mxCell id="KS3wpAuk2NDt0mwM5IOt-1" value="Bắt đầu tạo" style="rounded=1;whiteSpace=wrap;html=1;" vertex="1" parent="1">
          <mxGeometry x="365" y="30" width="120" height="60" as="geometry" />
        </mxCell>
        <mxCell id="KS3wpAuk2NDt0mwM5IOt-6" style="edgeStyle=orthogonalEdgeStyle;rounded=0;orthogonalLoop=1;jettySize=auto;html=1;exitX=0.5;exitY=1;exitDx=0;exitDy=0;entryX=0.5;entryY=0;entryDx=0;entryDy=0;" edge="1" parent="1" source="KS3wpAuk2NDt0mwM5IOt-2" target="KS3wpAuk2NDt0mwM5IOt-3">
          <mxGeometry relative="1" as="geometry" />
        </mxCell>
        <mxCell id="KS3wpAuk2NDt0mwM5IOt-2" value="Vòng lặp chạy từ 0 đến số đỉnh" style="rounded=0;whiteSpace=wrap;html=1;" vertex="1" parent="1">
          <mxGeometry x="365" y="140" width="120" height="60" as="geometry" />
        </mxCell>
        <mxCell id="KS3wpAuk2NDt0mwM5IOt-7" style="edgeStyle=orthogonalEdgeStyle;rounded=0;orthogonalLoop=1;jettySize=auto;html=1;exitX=0.5;exitY=1;exitDx=0;exitDy=0;entryX=0.5;entryY=0;entryDx=0;entryDy=0;" edge="1" parent="1" source="KS3wpAuk2NDt0mwM5IOt-3" target="KS3wpAuk2NDt0mwM5IOt-4">
          <mxGeometry relative="1" as="geometry" />
        </mxCell>
        <mxCell id="KS3wpAuk2NDt0mwM5IOt-3" value="Thêm ký tự A + i mỗi lần lặp vô mảng cacDinh" style="rounded=0;whiteSpace=wrap;html=1;" vertex="1" parent="1">
          <mxGeometry x="365" y="250" width="120" height="60" as="geometry" />
        </mxCell>
        <mxCell id="KS3wpAuk2NDt0mwM5IOt-4" value="Kết thúc" style="rounded=1;whiteSpace=wrap;html=1;" vertex="1" parent="1">
          <mxGeometry x="365" y="360" width="120" height="60" as="geometry" />
        </mxCell>
      </root>
    </mxGraphModel>
  </diagram>
</mxfile>
